<svg height="512pt" viewBox="-43 0 512 512" width="512pt" xmlns="http://www.w3.org/2000/svg"><path d="m368 512h-309.332031c-32.363281 0-58.667969-26.304688-58.667969-58.667969v-394.664062c0-32.363281 26.304688-58.667969 58.667969-58.667969h245.757812c14.378907 0 28.226563 5.246094 38.976563 14.804688l63.574218 56.492187c12.523438 11.15625 19.691407 27.136719 19.691407 43.859375v338.175781c0 32.363281-26.304688 58.667969-58.667969 58.667969zm-309.332031-480c-14.699219 0-26.667969 11.96875-26.667969 26.667969v394.664062c0 14.699219 11.96875 26.667969 26.667969 26.667969h309.332031c14.699219 0 26.667969-11.96875 26.667969-26.667969v-338.175781c0-7.59375-3.265625-14.867188-8.960938-19.945312l-63.574219-56.492188c-4.886718-4.328125-11.179687-6.71875-17.707031-6.71875zm0 0"/><path d="m80 128c-8.832031 0-16-7.167969-16-16v-32c0-8.832031 7.167969-16 16-16s16 7.167969 16 16v32c0 8.832031-7.167969 16-16 16zm0 0"/><path d="m144 128c-8.832031 0-16-7.167969-16-16v-32c0-8.832031 7.167969-16 16-16s16 7.167969 16 16v32c0 8.832031-7.167969 16-16 16zm0 0"/><path d="m208 128c-8.832031 0-16-7.167969-16-16v-32c0-8.832031 7.167969-16 16-16s16 7.167969 16 16v32c0 8.832031-7.167969 16-16 16zm0 0"/><path d="m272 128c-8.832031 0-16-7.167969-16-16v-32c0-8.832031 7.167969-16 16-16s16 7.167969 16 16v32c0 8.832031-7.167969 16-16 16zm0 0"/><path d="m346.667969 448h-266.667969c-8.832031 0-16-7.167969-16-16v-160c0-8.832031 7.167969-16 16-16h266.667969c8.832031 0 16 7.167969 16 16v160c0 8.832031-7.167969 16-16 16zm-250.667969-32h234.667969v-128h-234.667969zm0 0"/></svg>