<svg id="Layer_1" enable-background="new 0 0 511.989 511.989" height="512" viewBox="0 0 511.989 511.989" width="512" xmlns="http://www.w3.org/2000/svg"><g><g><path d="m499.915 49.292c-3.724-2.158-7.918-3.298-12.123-3.298-.006 0-.012 0-.019 0h-355.782c-11.025 0-19.994 8.972-19.994 20v.001h-41.997c-38.598 0-70 31.401-70 70v119.998c0 16.542 13.458 30 30 30s30-13.458 30-30v-119.998c0-5.421 4.58-10 10-10h41.997v289.999c0 27.57 22.42 50 49.978 50h239.869c27.558 0 49.979-22.43 49.979-50v-234.967l56.912-98.63c6.689-11.56 2.733-26.41-8.82-33.105zm-429.915 56.703c-16.542 0-30 13.458-30 30v119.998c0 5.514-4.486 10-10 10s-10-4.486-10-10v-119.998c0-27.57 22.43-50 50-50h41.997v20zm421.417-33.605-58.257 100.96c-.877 1.52-1.338 3.243-1.338 4.998v62.646h-104.916c-5.523 0-10 4.478-10 10s4.477 10 10 10h104.916v155c0 16.542-13.448 30-29.979 30h-239.869c-16.53 0-29.978-13.458-29.978-30l-.003-155h.003 104.909c5.523 0 10-4.478 10-10s-4.477-10-10-10h-104.908c-.001 0-.002 0-.003 0l-.003-175h355.791.003c.695 0 1.422.208 2.103.603 2.016 1.169 2.705 3.762 1.529 5.793z"/><path d="m221.999 105.995h-40c-5.523 0-10 4.478-10 10s4.477 10 10 10h40c5.523 0 10-4.478 10-10s-4.478-10-10-10z"/><path d="m221.999 150.995h-40c-5.523 0-10 4.478-10 10s4.477 10 10 10h40c5.523 0 10-4.478 10-10s-4.478-10-10-10z"/><path d="m221.999 195.994h-40c-5.523 0-10 4.478-10 10s4.477 10 10 10h40c5.523 0 10-4.478 10-10s-4.478-10-10-10z"/><path d="m221.999 285.994h-40c-5.523 0-10 4.478-10 10s4.477 10 10 10h40c5.523 0 10-4.478 10-10s-4.478-10-10-10z"/><path d="m221.999 330.994h-40c-5.523 0-10 4.478-10 10s4.477 10 10 10h40c5.523 0 10-4.478 10-10s-4.478-10-10-10z"/><path d="m281.909 240.994h-.007c-5.523 0-9.996 4.478-9.996 10s4.48 10 10.003 10 10-4.478 10-10-4.477-10-10-10z"/></g></g></svg>